# xmcd
#
# Track frame offsets:
#	150
#	14603
#	33126
#	50791
#	62612
#	74239
#	89262
#	104570
#	118274
#	133152
#	147933
#	163168
#	176762
#	188238
#
# Disc length: 2694 seconds
#
# Revision: 1
# Processed by: cddbd v1.5.2PL0 Copyright (c) Steve Scherf et al.
# Submitted via: audiograbber 1.83.01
#
DISCID=db0a840e
DTITLE=Charley Pride - Pride And Joy
DYEAR=2006
DGENRE=Gospel
TTITLE0=God's Coloring Book
TTITLE1=Jesus, It's Me Again
TTITLE2=Mansions For Me
TTITLE3=I'm Gonna Sing
TTITLE4=He Set Me Free
TTITLE5=Amazing Grace
TTITLE6=Family Bible
TTITLE7=Just A Closer Walk With Thee
TTITLE8=Take My Hand Precious Lord
TTITLE9=One Day At A Time
TTITLE10=Nobody Answered Me
TTITLE11=Jesus Hold My Hand
TTITLE12=Thank God
TTITLE13=Gospel Medley
EXTD=
EXTT0=
EXTT1=
EXTT2=
EXTT3=
EXTT4=
EXTT5=
EXTT6=
EXTT7=
EXTT8=
EXTT9=
EXTT10=
EXTT11=
EXTT12=
EXTT13=
PLAYORDER=
